<svg id="Layer_1" data-name="Layer 1" xmlns="http://www.w3.org/2000/svg" viewBox="0 0 1602 1202"><rect id="canvas_background" data-name="canvas background" width="1602" height="1202" style="fill:none"/><g id="svg_1" data-name="svg 1"><g id="svg_2" data-name="svg 2"><rect id="svg_3" data-name="svg 3" x="236.07" y="693.58" width="130.2" height="41.4" rx="1.92" transform="translate(-418.38 425.93) rotate(-45.3)" style="fill:#8c4e14"/><path id="svg_4" data-name="svg 4" d="M268.71,773.7,254,759.18a1.92,1.92,0,0,1,0-2.7,83.81,83.81,0,0,1,7.49-6.73c23.41-18.4,46.51-15.1,62.71-38.3,12.1-17.5,5.1-28.1,16.39-43.4.49-.65,1-1.31,1.55-1.94a1.9,1.9,0,0,1,2.69-.23l.12.11,15.38,15.21a1.91,1.91,0,0,1,0,2.71l-88.91,89.78a1.91,1.91,0,0,1-2.7,0Z" style="fill:#56351a"/><path id="svg_5" data-name="svg 5" d="M360.33,683.91l-88.8,89.77a1.93,1.93,0,0,1-2.72,0h0a1.93,1.93,0,0,1-.39-2.15c6.19-13.61,13.65-22.36,20.15-28.19,14.81-13.1,27-13.3,38.31-28.7,8.5-11.6,5.8-17.2,13.6-27.4A48.13,48.13,0,0,1,353,676a1.92,1.92,0,0,1,2.38.27l5,5A1.91,1.91,0,0,1,360.33,683.91Z" style="fill:#372112"/></g><g id="svg_6" data-name="svg 6"><rect id="svg_7" data-name="svg 7" x="320.42" y="655.94" width="41.4" height="100.6" rx="1.92" transform="translate(-157.98 101.23) rotate(-13.74)" style="fill:#8c4e14"/><path id="svg_8" data-name="svg 8" d="M373.18,750.25l-22,5.35a1.93,1.93,0,0,1-2.33-1.42h0a46.33,46.33,0,0,1-1.12-7.22c-1.8-23.1,13.9-38,4-57.7-7.39-14.9-20-13.8-26.1-27.4-.19-.43-.37-.85-.53-1.28a1.9,1.9,0,0,1,1.12-2.44l.23-.07,21-5.15a1.92,1.92,0,0,1,2.32,1.39v0l23.34,95.93Z" style="fill:#56351a"/><path id="svg_9" data-name="svg 9" d="M349.27,652.45l23.45,95.85a1.92,1.92,0,0,1-1.4,2.31h-.16a1.93,1.93,0,0,1-2-.65c-7.53-9.32-10.46-17.67-11.53-24.25-2.4-15.1,4.3-23.7-1.8-37.2-4.6-10.2-10.7-10.3-14.6-19.5a29.68,29.68,0,0,1-2.18-12.7,1.87,1.87,0,0,1,1.45-1.74l8.73-2.16Z" style="fill:#372112"/></g><g id="svg_10" data-name="svg 10"><rect id="svg_11" data-name="svg 11" x="361.47" y="648.4" width="41.4" height="130.2" rx="1.92" transform="translate(-408.31 539.48) rotate(-49.41)" style="fill:#8c4e14"/><path id="svg_12" data-name="svg 12" d="M443.82,741.51l-13.51,15.7a1.9,1.9,0,0,1-2.68.23h0a87,87,0,0,1-7.24-7c-20-22.1-18.4-45.4-42.7-59.8-18.3-10.9-28.4-3-44.5-13.2a21.28,21.28,0,0,1-2-1.37,1.93,1.93,0,0,1-.43-2.67l.11-.13L345,656.79a1.91,1.91,0,0,1,2.69-.22h0l96,82.2a1.93,1.93,0,0,1,.15,2.73Z" style="fill:#56351a"/><path id="svg_13" data-name="svg 13" d="M346.27,655.35l97.36,83.46a1.91,1.91,0,0,1,.22,2.69h0a1.91,1.91,0,0,1-2.14.56c-14-5.24-23.21-12-29.52-18.13-14.11-13.8-15.2-26-31.3-36.1-12.11-7.7-17.61-4.5-28.31-11.6a49.79,49.79,0,0,1-12.2-11.68,1.91,1.91,0,0,1,.09-2.38l5.81-6.84Z" style="fill:#372112"/></g></g><g id="svg_14" data-name="svg 14"><path id="svg_15" data-name="svg 15" d="M209.28,579.75c28.84,60.89,84.24,94.77,107.18,106.87a5.07,5.07,0,0,0,6.84-2.11,5.14,5.14,0,0,0,.56-2.83l-5.58-62.43-10.6-118.1-12.9-143.7-2.7-30.4-.83-9.36a5.07,5.07,0,0,0-8.49-3.28c-3.58,3.31-8.1,7.65-13.18,12.94s-10.9,11.7-16.9,18.9c-5.1,6.2-10.4,12.9-15.5,20.3-27.6,39.3-53.5,95.4-43.8,160.4A179.84,179.84,0,0,0,209.28,579.75Z" style="fill:#db5b15"/><path id="svg_16" data-name="svg 16" d="M360.68,346.85l-35.5,169.2L298.52,642.84a.32.32,0,0,1-.29.25c-.5,0-1.8-.3-4.54-2.63h0c-53-57.09-70.88-137-45.58-206.48,13.7-37.6,37.2-64.4,59.8-82.8,4.17-3.38,8.31-6.48,12.34-9.31a30.49,30.49,0,0,1,40.45,5Z" style="fill:#f2b804"/><path id="svg_17" data-name="svg 17" d="M384,275.55l-.1.4c-.11-.1-.31-.1-.4-.2C383.58,275.65,383.78,275.65,384,275.55Z" style="fill:#f3e600"/><path id="svg_18" data-name="svg 18" d="M355.48,455.05l-18.7,95.6-14.07,72.16.42.52a11.4,11.4,0,0,0,2.75-1.08c40-18,66.8-55.6,69-97.2,1.2-22.5-5.2-41.6-12.9-56.1a131,131,0,0,0-13.1-19.8c-4.2,1.6-8.7,3.6-13.4,5.9Z" style="fill:#dba406"/><path id="svg_19" data-name="svg 19" d="M440,517.55c-11.46,65.33-44.35,113.11-64.68,137.53a9.88,9.88,0,0,1-17.43-5.29l-6.3-60L337.4,454.19l-17.31-164.8-3.69-34.9h0a9.89,9.89,0,0,1,16-8.74c1.31,1.06,2.68,2.17,4.08,3.34,5.6,4.7,12,10.4,18.7,17,5.7,5.6,11.7,11.9,17.8,18.9,32.3,37.2,66.41,93.7,70.8,169.2a276,276,0,0,1-3.79,63.4Z" style="fill:#ec6912"/><path d="M323.9,623.08s-1.4.74-1.19-.27S323.9,623.08,323.9,623.08Z" style="fill:#dba406"/></g><g id="svg_20" data-name="svg 20" style="isolation:isolate"><g style="isolation:isolate"><path d="M597.46,546.34c53.07,0,85.84,20,85.84,55.9,0,36.14-33.48,59-85.84,59H494.16v-182h169.2v44.46H558.28v22.62Zm-4.27,71.5c15.31,0,24.57-6.24,24.57-16.38,0-9.88-9.26-15.86-24.57-15.86H557.92v32.24Z"/></g><g style="isolation:isolate"><path d="M828.63,523.46h65.54v4.68L796.58,704.68H730.32v-4.16l29.57-50.18-67.68-122.2v-4.68h65.54l21.37,42.12,13.89,32,13.9-32Z"/></g><g style="isolation:isolate"><path d="M928.73,523.46h157.08v137.8h-63v-96.2H987.14l-4.63,46.8C979.66,642,956.87,662,909.49,662c-5.7,0-12.82-.26-18.52-.78V622c3.92.26,5.34.26,8.19.26,12.82,0,20.66-4.42,21.73-16.9Z"/><path d="M1249,589.76l61.62,67.08v4.42H1239L1194.45,609v52.26h-63V523.46h63V573.9l41.32-50.44h69.1v4.42Z"/></g></g></svg>